# Blender v2.93.1 OBJ File: ''
# www.blender.org
mtllib untitled.mtl
o 01_Props.000_Cube.007
v -4.335195 0.391706 -7.264987
v -4.094122 0.391706 -7.320131
v -3.659578 0.391706 -7.111120
v -3.659247 0.391706 -6.418202
v -3.852520 0.391707 -6.263922
v -4.093594 0.391706 -6.208778
v -4.334719 0.391707 -6.263693
v -4.528138 0.391707 -6.417789
v -4.635661 0.391707 -6.887846
v -4.093858 0.355105 -6.764455
v -4.528468 0.391706 -7.110706
v -4.635544 0.391707 -6.640546
v -3.552055 0.391706 -6.641063
v -3.552171 0.391706 -6.888362
v -3.852997 0.391706 -7.265216
v -4.335195 0.075099 -7.264987
v -3.852997 0.075099 -7.265216
v -3.552171 0.075099 -6.888362
v -3.552055 0.075100 -6.641063
v -3.659247 0.075100 -6.418202
v -4.635544 0.075100 -6.640547
v -4.528468 0.075099 -7.110706
v -4.635661 0.075099 -6.887846
v -4.528138 0.075100 -6.417789
v -4.334719 0.075100 -6.263693
v -4.093594 0.075100 -6.208778
v -3.852520 0.075100 -6.263922
v -3.659577 0.075099 -7.111119
v -4.094122 0.075099 -7.320131
v -4.093858 0.111701 -6.764454
vt 0.010158 0.910938
vt 0.084304 0.910938
vt 0.017501 0.943109
vt 0.861536 0.520831
vt 0.894512 0.552855
vt 0.861536 0.552855
vt 0.828560 0.520831
vt 0.828560 0.552855
vt 0.795583 0.520831
vt 0.795583 0.552855
vt 0.729630 0.552855
vt 0.762607 0.520831
vt 0.762607 0.552855
vt 0.729630 0.520831
vt 0.696654 0.552855
vt 0.696654 0.520831
vt 0.663678 0.520831
vt 0.663678 0.552855
vt 0.630701 0.520831
vt 0.630701 0.552855
vt 0.597725 0.552855
vt 0.564748 0.520831
vt 0.564748 0.552855
vt 0.531772 0.520831
vt 0.531772 0.552855
vt 0.993441 0.520831
vt 0.960465 0.552855
vt 0.960465 0.520831
vt 0.927489 0.552855
vt 0.158450 0.910938
vt 0.151107 0.878767
vt 0.017501 0.878767
vt 0.038075 0.852968
vt 0.130533 0.968907
vt 0.151107 0.943109
vt 0.067805 0.838651
vt 0.100803 0.838651
vt 0.067805 0.983225
vt 0.100803 0.983225
vt 0.130533 0.852968
vt 0.038075 0.968907
vt 0.927489 0.520831
vt 0.320834 0.935358
vt 0.300260 0.961156
vt 0.254030 0.903187
vt 0.187227 0.935358
vt 0.179885 0.903187
vt 0.320834 0.871016
vt 0.328176 0.903187
vt 0.207801 0.961156
vt 0.237531 0.975474
vt 0.270529 0.830900
vt 0.300260 0.845217
vt 0.270529 0.975474
vt 0.237531 0.830900
vt 0.187227 0.871016
vt 0.207801 0.845217
vt 0.894512 0.520831
vt 0.597725 0.520831
vt 0.993441 0.552855
vn 0.0003 0.6815 0.7318
vn 0.0000 1.0000 -0.0000
vn -0.3172 0.6815 0.6595
vn -0.3178 -0.6815 -0.6592
vn -0.5723 0.6815 -0.4560
vn -0.3178 0.6815 -0.6592
vn -0.0004 -0.6815 -0.7318
vn -0.0003 0.6815 -0.7318
vn 0.3172 -0.6815 -0.6595
vn 0.3172 0.6815 -0.6595
vn 0.7134 0.6815 -0.1632
vn 0.5719 -0.6815 -0.4565
vn 0.5719 0.6815 -0.4565
vn 0.7134 -0.6815 -0.1632
vn 0.7135 0.6815 0.1625
vn 0.7135 -0.6815 0.1625
vn 0.5723 -0.6815 0.4560
vn 0.5723 0.6815 0.4560
vn 0.3178 -0.6815 0.6592
vn 0.3178 0.6815 0.6592
vn -0.3172 -0.6815 0.6595
vn -0.5719 -0.6815 0.4565
vn -0.5719 0.6815 0.4565
vn -0.7134 0.6815 0.1632
vn -0.7134 -0.6815 0.1632
vn -0.7135 0.6815 -0.1625
vn -0.7135 -0.6815 -0.1625
vn 0.0000 -1.0000 0.0000
vn -0.5723 -0.6815 -0.4560
vn 0.0003 -0.6815 0.7318
usemtl PropsMat.001
s 1
f 6/1/1 10/2/2 7/3/3
f 16/4/4 11/5/5 1/6/6
f 29/7/7 1/6/6 2/8/8
f 17/9/9 2/8/8 15/10/10
f 14/11/11 28/12/12 3/13/13
f 18/14/14 13/15/15 19/16/16
f 20/17/17 13/15/15 4/18/18
f 27/19/19 4/18/18 5/20/20
f 6/21/1 27/19/19 5/20/20
f 25/22/21 6/21/1 7/23/3
f 24/24/22 7/23/3 8/25/23
f 24/26/22 12/27/24 21/28/25
f 9/29/26 21/28/25 12/27/24
f 2/30/8 10/2/2 15/31/10
f 5/32/20 10/2/2 6/1/1
f 4/33/18 10/2/2 5/32/20
f 11/34/5 10/2/2 1/35/6
f 13/36/15 10/2/2 4/33/18
f 14/37/11 10/2/2 13/36/15
f 12/38/24 10/2/2 9/39/26
f 3/40/13 10/2/2 14/37/11
f 8/41/23 10/2/2 12/38/24
f 15/31/10 10/2/2 3/40/13
f 9/39/26 10/2/2 11/34/5
f 7/3/3 10/2/2 8/41/23
f 1/35/6 10/2/2 2/30/8
f 11/5/5 23/42/27 9/29/26
f 29/43/7 17/44/9 30/45/28
f 20/46/17 27/47/19 30/45/28
f 22/48/29 16/49/4 30/45/28
f 19/50/16 20/46/17 30/45/28
f 18/51/14 19/50/16 30/45/28
f 21/52/25 23/53/27 30/45/28
f 28/54/12 18/51/14 30/45/28
f 24/55/22 21/52/25 30/45/28
f 17/44/9 28/54/12 30/45/28
f 23/53/27 22/48/29 30/45/28
f 16/49/4 29/43/7 30/45/28
f 26/56/30 30/45/28 27/47/19
f 25/57/21 30/45/28 26/56/30
f 24/55/22 30/45/28 25/57/21
f 3/13/13 17/9/9 15/10/10
f 16/4/4 22/58/29 11/5/5
f 29/7/7 16/4/4 1/6/6
f 17/9/9 29/7/7 2/8/8
f 14/11/11 18/14/14 28/12/12
f 18/14/14 14/11/11 13/15/15
f 20/17/17 19/16/16 13/15/15
f 27/19/19 20/17/17 4/18/18
f 6/21/1 26/59/30 27/19/19
f 25/22/21 26/59/30 6/21/1
f 24/24/22 25/22/21 7/23/3
f 24/26/22 8/60/23 12/27/24
f 9/29/26 23/42/27 21/28/25
f 11/5/5 22/58/29 23/42/27
f 3/13/13 28/12/12 17/9/9
